<svg id="el1ESZPaY371" xmlns="http://www.w3.org/2000/svg" xmlns:xlink="http://www.w3.org/1999/xlink" viewBox="0 0 300 300" shape-rendering="geometricPrecision" text-rendering="geometricPrecision"><defs><filter id="el1ESZPaY372-filter" x="-150%" width="400%" y="-150%" height="400%"><feGaussianBlur id="el1ESZPaY372-filter-drop-shadow-0-blur" in="SourceAlpha" stdDeviation="52,10"/><feOffset id="el1ESZPaY372-filter-drop-shadow-0-offset" dx="0" dy="0" result="tmp"/><feFlood id="el1ESZPaY372-filter-drop-shadow-0-flood" flood-color="#000"/><feComposite id="el1ESZPaY372-filter-drop-shadow-0-composite" operator="in" in2="tmp"/><feMerge id="el1ESZPaY372-filter-drop-shadow-0-merge" result="result"><feMergeNode id="el1ESZPaY372-filter-drop-shadow-0-merge-node-1"/><feMergeNode id="el1ESZPaY372-filter-drop-shadow-0-merge-node-2" in="SourceGraphic"/></feMerge></filter><linearGradient id="el1ESZPaY374-fill" x1="0.146447" y1="0.146447" x2="0.853553" y2="0.853553" spreadMethod="pad" gradientUnits="objectBoundingBox" gradientTransform="translate(0 0)"><stop id="el1ESZPaY374-fill-0" offset="0%" stop-color="#dcc39a"/><stop id="el1ESZPaY374-fill-1" offset="100%" stop-color="#a1774d"/></linearGradient><filter id="el1ESZPaY37611-filter" x="-150%" width="400%" y="-150%" height="400%"><feGaussianBlur id="el1ESZPaY37611-filter-drop-shadow-0-blur" in="SourceAlpha" stdDeviation="45,0"/><feOffset id="el1ESZPaY37611-filter-drop-shadow-0-offset" dx="0" dy="0" result="tmp"/><feFlood id="el1ESZPaY37611-filter-drop-shadow-0-flood" flood-color="#000"/><feComposite id="el1ESZPaY37611-filter-drop-shadow-0-composite" operator="in" in2="tmp"/><feMerge id="el1ESZPaY37611-filter-drop-shadow-0-merge" result="result"><feMergeNode id="el1ESZPaY37611-filter-drop-shadow-0-merge-node-1"/><feMergeNode id="el1ESZPaY37611-filter-drop-shadow-0-merge-node-2" in="SourceGraphic"/></feMerge></filter><linearGradient id="el1ESZPaY37611-fill" x1="0.146447" y1="0.146447" x2="0.853553" y2="0.853553" spreadMethod="pad" gradientUnits="objectBoundingBox" gradientTransform="translate(0 0)"><stop id="el1ESZPaY37611-fill-0" offset="0%" stop-color="#dcc39a"/><stop id="el1ESZPaY37611-fill-1" offset="100%" stop-color="#a1774d"/></linearGradient></defs><g transform="translate(1.487947-3.719865)" filter="url(#el1ESZPaY372-filter)"><g><path d="M-68.82552,373v-446h346v.25403C212.49135,-22.26507,170.56498,58.71191,170.56498,150s41.92637,172.26507,106.6095,222.74597v.25403h-346Z" transform="matrix(.5 0 0 0.5 51.395512 75)" fill="url(#el1ESZPaY374-fill)" stroke-width="0"/><g><g transform="translate(123.157226-1.376263)"><ellipse rx="30" ry="30" transform="matrix(.040335 0 0 0.04181 22.85776 43.13854)" fill="#d2dbed" stroke-width="0"/><ellipse rx="30" ry="30" transform="matrix(.040335 0 0 0.04181 58.654677 43.13854)" fill="#d2dbed" stroke-width="0"/><ellipse rx="30" ry="30" transform="matrix(.040335 0 0 0.04181 54.331377 43.13854)" fill="#d2dbed" stroke-width="0"/><ellipse rx="30" ry="30" transform="matrix(.040335 0 0 0.04181 50.18101 43.13854)" fill="#d2dbed" stroke-width="0"/><ellipse rx="30" ry="30" transform="matrix(.040335 0 0 0.04181 46.117109 43.13854)" fill="#d2dbed" stroke-width="0"/><ellipse rx="30" ry="30" transform="matrix(.040335 0 0 0.04181 42.22614 43.13854)" fill="#d2dbed" stroke-width="0"/><ellipse rx="30" ry="30" transform="matrix(.040335 0 0 0.04181 38.335171 43.13854)" fill="#d2dbed" stroke-width="0"/><ellipse rx="30" ry="30" transform="matrix(.040335 0 0 0.04181 34.617133 43.13854)" fill="#d2dbed" stroke-width="0"/><ellipse rx="30" ry="30" transform="matrix(.040335 0 0 0.04181 30.639698 43.13854)" fill="#d2dbed" stroke-width="0"/><ellipse rx="30" ry="30" transform="matrix(.040335 0 0 0.04181 26.575797 43.13854)" fill="#d2dbed" stroke-width="0"/></g><g transform="translate(118.833922 2.787241)"><ellipse rx="30" ry="30" transform="matrix(.040335 0 0 0.04181 22.85776 43.13854)" fill="#d2dbed" stroke-width="0"/><ellipse rx="30" ry="30" transform="matrix(.040335 0 0 0.04181 58.654677 43.13854)" fill="#d2dbed" stroke-width="0"/><ellipse rx="30" ry="30" transform="matrix(.040335 0 0 0.04181 54.331377 43.13854)" fill="#d2dbed" stroke-width="0"/><ellipse rx="30" ry="30" transform="matrix(.040335 0 0 0.04181 50.18101 43.13854)" fill="#d2dbed" stroke-width="0"/><ellipse rx="30" ry="30" transform="matrix(.040335 0 0 0.04181 46.117109 43.13854)" fill="#d2dbed" stroke-width="0"/><ellipse rx="30" ry="30" transform="matrix(.040335 0 0 0.04181 42.22614 43.13854)" fill="#d2dbed" stroke-width="0"/><ellipse rx="30" ry="30" transform="matrix(.040335 0 0 0.04181 38.335171 43.13854)" fill="#d2dbed" stroke-width="0"/><ellipse rx="30" ry="30" transform="matrix(.040335 0 0 0.04181 34.617133 43.13854)" fill="#d2dbed" stroke-width="0"/><ellipse rx="30" ry="30" transform="matrix(.040335 0 0 0.04181 30.639698 43.13854)" fill="#d2dbed" stroke-width="0"/><ellipse rx="30" ry="30" transform="matrix(.040335 0 0 0.04181 26.575797 43.13854)" fill="#d2dbed" stroke-width="0"/></g><g transform="translate(114.510618 6.94827)"><ellipse rx="30" ry="30" transform="matrix(.040335 0 0 0.04181 22.85776 43.13854)" fill="#d2dbed" stroke-width="0"/><ellipse rx="30" ry="30" transform="matrix(.040335 0 0 0.04181 58.654677 43.13854)" fill="#d2dbed" stroke-width="0"/><ellipse rx="30" ry="30" transform="matrix(.040335 0 0 0.04181 54.331377 43.13854)" fill="#d2dbed" stroke-width="0"/><ellipse rx="30" ry="30" transform="matrix(.040335 0 0 0.04181 50.18101 43.13854)" fill="#d2dbed" stroke-width="0"/><ellipse rx="30" ry="30" transform="matrix(.040335 0 0 0.04181 46.117109 43.13854)" fill="#d2dbed" stroke-width="0"/><ellipse rx="30" ry="30" transform="matrix(.040335 0 0 0.04181 42.22614 43.13854)" fill="#d2dbed" stroke-width="0"/><ellipse rx="30" ry="30" transform="matrix(.040335 0 0 0.04181 38.335171 43.13854)" fill="#d2dbed" stroke-width="0"/><ellipse rx="30" ry="30" transform="matrix(.040335 0 0 0.04181 34.617133 43.13854)" fill="#d2dbed" stroke-width="0"/><ellipse rx="30" ry="30" transform="matrix(.040335 0 0 0.04181 30.639698 43.13854)" fill="#d2dbed" stroke-width="0"/><ellipse rx="30" ry="30" transform="matrix(.040335 0 0 0.04181 26.575797 43.13854)" fill="#d2dbed" stroke-width="0"/></g><g transform="translate(110.532235 11.215932)"><ellipse rx="30" ry="30" transform="matrix(.040335 0 0 0.04181 22.85776 43.13854)" fill="#d2dbed" stroke-width="0"/><ellipse rx="30" ry="30" transform="matrix(.040335 0 0 0.04181 58.654677 43.13854)" fill="#d2dbed" stroke-width="0"/><ellipse rx="30" ry="30" transform="matrix(.040335 0 0 0.04181 54.331377 43.13854)" fill="#d2dbed" stroke-width="0"/><ellipse rx="30" ry="30" transform="matrix(.040335 0 0 0.04181 50.18101 43.13854)" fill="#d2dbed" stroke-width="0"/><ellipse rx="30" ry="30" transform="matrix(.040335 0 0 0.04181 46.117109 43.13854)" fill="#d2dbed" stroke-width="0"/><ellipse rx="30" ry="30" transform="matrix(.040335 0 0 0.04181 42.22614 43.13854)" fill="#d2dbed" stroke-width="0"/><ellipse rx="30" ry="30" transform="matrix(.040335 0 0 0.04181 38.335171 43.13854)" fill="#d2dbed" stroke-width="0"/><ellipse rx="30" ry="30" transform="matrix(.040335 0 0 0.04181 34.617133 43.13854)" fill="#d2dbed" stroke-width="0"/><ellipse rx="30" ry="30" transform="matrix(.040335 0 0 0.04181 30.639698 43.13854)" fill="#d2dbed" stroke-width="0"/><ellipse rx="30" ry="30" transform="matrix(.040335 0 0 0.04181 26.575797 43.13854)" fill="#d2dbed" stroke-width="0"/></g><g transform="translate(106.470685 15.5082)"><ellipse rx="30" ry="30" transform="matrix(.040335 0 0 0.04181 22.85776 43.13854)" fill="#d2dbed" stroke-width="0"/><ellipse rx="30" ry="30" transform="matrix(.040335 0 0 0.04181 58.654677 43.13854)" fill="#d2dbed" stroke-width="0"/><ellipse rx="30" ry="30" transform="matrix(.040335 0 0 0.04181 54.331377 43.13854)" fill="#d2dbed" stroke-width="0"/><ellipse rx="30" ry="30" transform="matrix(.040335 0 0 0.04181 50.18101 43.13854)" fill="#d2dbed" stroke-width="0"/><ellipse rx="30" ry="30" transform="matrix(.040335 0 0 0.04181 46.117109 43.13854)" fill="#d2dbed" stroke-width="0"/><ellipse rx="30" ry="30" transform="matrix(.040335 0 0 0.04181 42.22614 43.13854)" fill="#d2dbed" stroke-width="0"/><ellipse rx="30" ry="30" transform="matrix(.040335 0 0 0.04181 38.335171 43.13854)" fill="#d2dbed" stroke-width="0"/><ellipse rx="30" ry="30" transform="matrix(.040335 0 0 0.04181 34.617133 43.13854)" fill="#d2dbed" stroke-width="0"/><ellipse rx="30" ry="30" transform="matrix(.040335 0 0 0.04181 30.639698 43.13854)" fill="#d2dbed" stroke-width="0"/><ellipse rx="30" ry="30" transform="matrix(.040335 0 0 0.04181 26.575797 43.13854)" fill="#d2dbed" stroke-width="0"/></g><g transform="translate(103.270035 19.984529)"><ellipse rx="30" ry="30" transform="matrix(.040335 0 0 0.04181 22.85776 43.13854)" fill="#d2dbed" stroke-width="0"/><ellipse rx="30" ry="30" transform="matrix(.040335 0 0 0.04181 58.654677 43.13854)" fill="#d2dbed" stroke-width="0"/><ellipse rx="30" ry="30" transform="matrix(.040335 0 0 0.04181 54.331377 43.13854)" fill="#d2dbed" stroke-width="0"/><ellipse rx="30" ry="30" transform="matrix(.040335 0 0 0.04181 50.18101 43.13854)" fill="#d2dbed" stroke-width="0"/><ellipse rx="30" ry="30" transform="matrix(.040335 0 0 0.04181 46.117109 43.13854)" fill="#d2dbed" stroke-width="0"/><ellipse rx="30" ry="30" transform="matrix(.040335 0 0 0.04181 42.22614 43.13854)" fill="#d2dbed" stroke-width="0"/><ellipse rx="30" ry="30" transform="matrix(.040335 0 0 0.04181 38.335171 43.13854)" fill="#d2dbed" stroke-width="0"/><ellipse rx="30" ry="30" transform="matrix(.040335 0 0 0.04181 34.617133 43.13854)" fill="#d2dbed" stroke-width="0"/><ellipse rx="30" ry="30" transform="matrix(.040335 0 0 0.04181 30.639698 43.13854)" fill="#d2dbed" stroke-width="0"/><ellipse rx="30" ry="30" transform="matrix(.040335 0 0 0.04181 26.575797 43.13854)" fill="#d2dbed" stroke-width="0"/></g><g transform="translate(99.897866 24.363501)"><ellipse rx="30" ry="30" transform="matrix(.040335 0 0 0.04181 22.85776 43.13854)" fill="#d2dbed" stroke-width="0"/><ellipse rx="30" ry="30" transform="matrix(.040335 0 0 0.04181 58.654677 43.13854)" fill="#d2dbed" stroke-width="0"/><ellipse rx="30" ry="30" transform="matrix(.040335 0 0 0.04181 54.331377 43.13854)" fill="#d2dbed" stroke-width="0"/><ellipse rx="30" ry="30" transform="matrix(.040335 0 0 0.04181 50.18101 43.13854)" fill="#d2dbed" stroke-width="0"/><ellipse rx="30" ry="30" transform="matrix(.040335 0 0 0.04181 46.117109 43.13854)" fill="#d2dbed" stroke-width="0"/><ellipse rx="30" ry="30" transform="matrix(.040335 0 0 0.04181 42.22614 43.13854)" fill="#d2dbed" stroke-width="0"/><ellipse rx="30" ry="30" transform="matrix(.040335 0 0 0.04181 38.335171 43.13854)" fill="#d2dbed" stroke-width="0"/><ellipse rx="30" ry="30" transform="matrix(.040335 0 0 0.04181 34.617133 43.13854)" fill="#d2dbed" stroke-width="0"/><ellipse rx="30" ry="30" transform="matrix(.040335 0 0 0.04181 30.639698 43.13854)" fill="#d2dbed" stroke-width="0"/><ellipse rx="30" ry="30" transform="matrix(.040335 0 0 0.04181 26.575797 43.13854)" fill="#d2dbed" stroke-width="0"/></g><g transform="translate(97.304362 28.71455)"><ellipse rx="30" ry="30" transform="matrix(.040335 0 0 0.04181 22.85776 43.13854)" fill="#d2dbed" stroke-width="0"/><ellipse rx="30" ry="30" transform="matrix(.040335 0 0 0.04181 58.654677 43.13854)" fill="#d2dbed" stroke-width="0"/><ellipse rx="30" ry="30" transform="matrix(.040335 0 0 0.04181 54.331377 43.13854)" fill="#d2dbed" stroke-width="0"/><ellipse rx="30" ry="30" transform="matrix(.040335 0 0 0.04181 50.18101 43.13854)" fill="#d2dbed" stroke-width="0"/><ellipse rx="30" ry="30" transform="matrix(.040335 0 0 0.04181 46.117109 43.13854)" fill="#d2dbed" stroke-width="0"/><ellipse rx="30" ry="30" transform="matrix(.040335 0 0 0.04181 42.22614 43.13854)" fill="#d2dbed" stroke-width="0"/><ellipse rx="30" ry="30" transform="matrix(.040335 0 0 0.04181 38.335171 43.13854)" fill="#d2dbed" stroke-width="0"/><ellipse rx="30" ry="30" transform="matrix(.040335 0 0 0.04181 34.617133 43.13854)" fill="#d2dbed" stroke-width="0"/><ellipse rx="30" ry="30" transform="matrix(.040335 0 0 0.04181 30.639698 43.13854)" fill="#d2dbed" stroke-width="0"/><ellipse rx="30" ry="30" transform="matrix(.040335 0 0 0.04181 26.575797 43.13854)" fill="#d2dbed" stroke-width="0"/></g><g transform="translate(94.710375 32.867822)"><ellipse rx="30" ry="30" transform="matrix(.040335 0 0 0.04181 22.85776 43.13854)" fill="#d2dbed" stroke-width="0"/><ellipse rx="30" ry="30" transform="matrix(.040335 0 0 0.04181 58.654677 43.13854)" fill="#d2dbed" stroke-width="0"/><ellipse rx="30" ry="30" transform="matrix(.040335 0 0 0.04181 54.331377 43.13854)" fill="#d2dbed" stroke-width="0"/><ellipse rx="30" ry="30" transform="matrix(.040335 0 0 0.04181 50.18101 43.13854)" fill="#d2dbed" stroke-width="0"/><ellipse rx="30" ry="30" transform="matrix(.040335 0 0 0.04181 46.117109 43.13854)" fill="#d2dbed" stroke-width="0"/><ellipse rx="30" ry="30" transform="matrix(.040335 0 0 0.04181 42.22614 43.13854)" fill="#d2dbed" stroke-width="0"/><ellipse rx="30" ry="30" transform="matrix(.040335 0 0 0.04181 38.335171 43.13854)" fill="#d2dbed" stroke-width="0"/><ellipse rx="30" ry="30" transform="matrix(.040335 0 0 0.04181 34.617133 43.13854)" fill="#d2dbed" stroke-width="0"/><ellipse rx="30" ry="30" transform="matrix(.040335 0 0 0.04181 30.639698 43.13854)" fill="#d2dbed" stroke-width="0"/><ellipse rx="30" ry="30" transform="matrix(.040335 0 0 0.04181 26.575797 43.13854)" fill="#d2dbed" stroke-width="0"/></g><g transform="translate(92.722143 36.964257)"><ellipse rx="30" ry="30" transform="matrix(.040335 0 0 0.04181 22.85776 43.13854)" fill="#d2dbed" stroke-width="0"/><ellipse rx="30" ry="30" transform="matrix(.040335 0 0 0.04181 58.654677 43.13854)" fill="#d2dbed" stroke-width="0"/><ellipse rx="30" ry="30" transform="matrix(.040335 0 0 0.04181 54.331377 43.13854)" fill="#d2dbed" stroke-width="0"/><ellipse rx="30" ry="30" transform="matrix(.040335 0 0 0.04181 50.18101 43.13854)" fill="#d2dbed" stroke-width="0"/><ellipse rx="30" ry="30" transform="matrix(.040335 0 0 0.04181 46.117109 43.13854)" fill="#d2dbed" stroke-width="0"/><ellipse rx="30" ry="30" transform="matrix(.040335 0 0 0.04181 42.22614 43.13854)" fill="#d2dbed" stroke-width="0"/><ellipse rx="30" ry="30" transform="matrix(.040335 0 0 0.04181 38.335171 43.13854)" fill="#d2dbed" stroke-width="0"/><ellipse rx="30" ry="30" transform="matrix(.040335 0 0 0.04181 34.617133 43.13854)" fill="#d2dbed" stroke-width="0"/><ellipse rx="30" ry="30" transform="matrix(.040335 0 0 0.04181 30.639698 43.13854)" fill="#d2dbed" stroke-width="0"/><ellipse rx="30" ry="30" transform="matrix(.040335 0 0 0.04181 26.575797 43.13854)" fill="#d2dbed" stroke-width="0"/></g><g transform="translate(90.302039 40.975348)"><ellipse rx="30" ry="30" transform="matrix(.040335 0 0 0.04181 22.85776 43.13854)" fill="#d2dbed" stroke-width="0"/><ellipse rx="30" ry="30" transform="matrix(.040335 0 0 0.04181 58.654677 43.13854)" fill="#d2dbed" stroke-width="0"/><ellipse rx="30" ry="30" transform="matrix(.040335 0 0 0.04181 54.331377 43.13854)" fill="#d2dbed" stroke-width="0"/><ellipse rx="30" ry="30" transform="matrix(.040335 0 0 0.04181 50.18101 43.13854)" fill="#d2dbed" stroke-width="0"/><ellipse rx="30" ry="30" transform="matrix(.040335 0 0 0.04181 46.117109 43.13854)" fill="#d2dbed" stroke-width="0"/><ellipse rx="30" ry="30" transform="matrix(.040335 0 0 0.04181 42.22614 43.13854)" fill="#d2dbed" stroke-width="0"/><ellipse rx="30" ry="30" transform="matrix(.040335 0 0 0.04181 38.335171 43.13854)" fill="#d2dbed" stroke-width="0"/><ellipse rx="30" ry="30" transform="matrix(.040335 0 0 0.04181 34.617133 43.13854)" fill="#d2dbed" stroke-width="0"/><ellipse rx="30" ry="30" transform="matrix(.040335 0 0 0.04181 30.639698 43.13854)" fill="#d2dbed" stroke-width="0"/><ellipse rx="30" ry="30" transform="matrix(.040335 0 0 0.04181 26.575797 43.13854)" fill="#d2dbed" stroke-width="0"/></g><g transform="translate(88.05297 45.339691)"><ellipse rx="30" ry="30" transform="matrix(.040335 0 0 0.04181 22.85776 43.13854)" fill="#d2dbed" stroke-width="0"/><ellipse rx="30" ry="30" transform="matrix(.040335 0 0 0.04181 58.654677 43.13854)" fill="#d2dbed" stroke-width="0"/><ellipse rx="30" ry="30" transform="matrix(.040335 0 0 0.04181 54.331377 43.13854)" fill="#d2dbed" stroke-width="0"/><ellipse rx="30" ry="30" transform="matrix(.040335 0 0 0.04181 50.18101 43.13854)" fill="#d2dbed" stroke-width="0"/><ellipse rx="30" ry="30" transform="matrix(.040335 0 0 0.04181 46.117109 43.13854)" fill="#d2dbed" stroke-width="0"/><ellipse rx="30" ry="30" transform="matrix(.040335 0 0 0.04181 42.22614 43.13854)" fill="#d2dbed" stroke-width="0"/><ellipse rx="30" ry="30" transform="matrix(.040335 0 0 0.04181 38.335171 43.13854)" fill="#d2dbed" stroke-width="0"/><ellipse rx="30" ry="30" transform="matrix(.040335 0 0 0.04181 34.617133 43.13854)" fill="#d2dbed" stroke-width="0"/><ellipse rx="30" ry="30" transform="matrix(.040335 0 0 0.04181 30.639698 43.13854)" fill="#d2dbed" stroke-width="0"/><ellipse rx="30" ry="30" transform="matrix(.040335 0 0 0.04181 26.575797 43.13854)" fill="#d2dbed" stroke-width="0"/></g><g transform="translate(86.064728 49.895833)"><ellipse rx="30" ry="30" transform="matrix(.040335 0 0 0.04181 22.85776 43.13854)" fill="#d2dbed" stroke-width="0"/><ellipse rx="30" ry="30" transform="matrix(.040335 0 0 0.04181 58.654677 43.13854)" fill="#d2dbed" stroke-width="0"/><ellipse rx="30" ry="30" transform="matrix(.040335 0 0 0.04181 54.331377 43.13854)" fill="#d2dbed" stroke-width="0"/><ellipse rx="30" ry="30" transform="matrix(.040335 0 0 0.04181 50.18101 43.13854)" fill="#d2dbed" stroke-width="0"/><ellipse rx="30" ry="30" transform="matrix(.040335 0 0 0.04181 46.117109 43.13854)" fill="#d2dbed" stroke-width="0"/><ellipse rx="30" ry="30" transform="matrix(.040335 0 0 0.04181 42.22614 43.13854)" fill="#d2dbed" stroke-width="0"/><ellipse rx="30" ry="30" transform="matrix(.040335 0 0 0.04181 38.335171 43.13854)" fill="#d2dbed" stroke-width="0"/><ellipse rx="30" ry="30" transform="matrix(.040335 0 0 0.04181 34.617133 43.13854)" fill="#d2dbed" stroke-width="0"/><ellipse rx="30" ry="30" transform="matrix(.040335 0 0 0.04181 30.639698 43.13854)" fill="#d2dbed" stroke-width="0"/><ellipse rx="30" ry="30" transform="matrix(.040335 0 0 0.04181 26.575797 43.13854)" fill="#d2dbed" stroke-width="0"/></g><g transform="translate(84.76679 53.742028)"><ellipse rx="30" ry="30" transform="matrix(.040335 0 0 0.04181 22.85776 43.13854)" fill="#d2dbed" stroke-width="0"/><ellipse rx="30" ry="30" transform="matrix(.040335 0 0 0.04181 58.654677 43.13854)" fill="#d2dbed" stroke-width="0"/><ellipse rx="30" ry="30" transform="matrix(.040335 0 0 0.04181 54.331377 43.13854)" fill="#d2dbed" stroke-width="0"/><ellipse rx="30" ry="30" transform="matrix(.040335 0 0 0.04181 50.18101 43.13854)" fill="#d2dbed" stroke-width="0"/><ellipse rx="30" ry="30" transform="matrix(.040335 0 0 0.04181 46.117109 43.13854)" fill="#d2dbed" stroke-width="0"/><ellipse rx="30" ry="30" transform="matrix(.040335 0 0 0.04181 42.22614 43.13854)" fill="#d2dbed" stroke-width="0"/><ellipse rx="30" ry="30" transform="matrix(.040335 0 0 0.04181 38.335171 43.13854)" fill="#d2dbed" stroke-width="0"/><ellipse rx="30" ry="30" transform="matrix(.040335 0 0 0.04181 34.617133 43.13854)" fill="#d2dbed" stroke-width="0"/><ellipse rx="30" ry="30" transform="matrix(.040335 0 0 0.04181 30.639698 43.13854)" fill="#d2dbed" stroke-width="0"/><ellipse rx="30" ry="30" transform="matrix(.040335 0 0 0.04181 26.575797 43.13854)" fill="#d2dbed" stroke-width="0"/></g><g transform="translate(83.383803 57.685447)"><ellipse rx="30" ry="30" transform="matrix(.040335 0 0 0.04181 22.85776 43.13854)" fill="#d2dbed" stroke-width="0"/><ellipse rx="30" ry="30" transform="matrix(.040335 0 0 0.04181 58.654677 43.13854)" fill="#d2dbed" stroke-width="0"/><ellipse rx="30" ry="30" transform="matrix(.040335 0 0 0.04181 54.331377 43.13854)" fill="#d2dbed" stroke-width="0"/><ellipse rx="30" ry="30" transform="matrix(.040335 0 0 0.04181 50.18101 43.13854)" fill="#d2dbed" stroke-width="0"/><ellipse rx="30" ry="30" transform="matrix(.040335 0 0 0.04181 46.117109 43.13854)" fill="#d2dbed" stroke-width="0"/><ellipse rx="30" ry="30" transform="matrix(.040335 0 0 0.04181 42.22614 43.13854)" fill="#d2dbed" stroke-width="0"/><ellipse rx="30" ry="30" transform="matrix(.040335 0 0 0.04181 38.335171 43.13854)" fill="#d2dbed" stroke-width="0"/><ellipse rx="30" ry="30" transform="matrix(.040335 0 0 0.04181 34.617133 43.13854)" fill="#d2dbed" stroke-width="0"/><ellipse rx="30" ry="30" transform="matrix(.040335 0 0 0.04181 30.639698 43.13854)" fill="#d2dbed" stroke-width="0"/><ellipse rx="30" ry="30" transform="matrix(.040335 0 0 0.04181 26.575797 43.13854)" fill="#d2dbed" stroke-width="0"/></g><g transform="translate(81.913889 61.856369)"><ellipse rx="30" ry="30" transform="matrix(.040335 0 0 0.04181 22.85776 43.13854)" fill="#d2dbed" stroke-width="0"/><ellipse rx="30" ry="30" transform="matrix(.040335 0 0 0.04181 58.654677 43.13854)" fill="#d2dbed" stroke-width="0"/><ellipse rx="30" ry="30" transform="matrix(.040335 0 0 0.04181 54.331377 43.13854)" fill="#d2dbed" stroke-width="0"/><ellipse rx="30" ry="30" transform="matrix(.040335 0 0 0.04181 50.18101 43.13854)" fill="#d2dbed" stroke-width="0"/><ellipse rx="30" ry="30" transform="matrix(.040335 0 0 0.04181 46.117109 43.13854)" fill="#d2dbed" stroke-width="0"/><ellipse rx="30" ry="30" transform="matrix(.040335 0 0 0.04181 42.22614 43.13854)" fill="#d2dbed" stroke-width="0"/><ellipse rx="30" ry="30" transform="matrix(.040335 0 0 0.04181 38.335171 43.13854)" fill="#d2dbed" stroke-width="0"/><ellipse rx="30" ry="30" transform="matrix(.040335 0 0 0.04181 34.617133 43.13854)" fill="#d2dbed" stroke-width="0"/><ellipse rx="30" ry="30" transform="matrix(.040335 0 0 0.04181 30.639698 43.13854)" fill="#d2dbed" stroke-width="0"/><ellipse rx="30" ry="30" transform="matrix(.040335 0 0 0.04181 26.575797 43.13854)" fill="#d2dbed" stroke-width="0"/></g><g transform="translate(80.963699 66.12647)"><ellipse rx="30" ry="30" transform="matrix(.040335 0 0 0.04181 22.85776 43.13854)" fill="#d2dbed" stroke-width="0"/><ellipse rx="30" ry="30" transform="matrix(.040335 0 0 0.04181 58.654677 43.13854)" fill="#d2dbed" stroke-width="0"/><ellipse rx="30" ry="30" transform="matrix(.040335 0 0 0.04181 54.331377 43.13854)" fill="#d2dbed" stroke-width="0"/><ellipse rx="30" ry="30" transform="matrix(.040335 0 0 0.04181 50.18101 43.13854)" fill="#d2dbed" stroke-width="0"/><ellipse rx="30" ry="30" transform="matrix(.040335 0 0 0.04181 46.117109 43.13854)" fill="#d2dbed" stroke-width="0"/><ellipse rx="30" ry="30" transform="matrix(.040335 0 0 0.04181 42.22614 43.13854)" fill="#d2dbed" stroke-width="0"/><ellipse rx="30" ry="30" transform="matrix(.040335 0 0 0.04181 38.335171 43.13854)" fill="#d2dbed" stroke-width="0"/><ellipse rx="30" ry="30" transform="matrix(.040335 0 0 0.04181 34.617133 43.13854)" fill="#d2dbed" stroke-width="0"/><ellipse rx="30" ry="30" transform="matrix(.040335 0 0 0.04181 30.639698 43.13854)" fill="#d2dbed" stroke-width="0"/><ellipse rx="30" ry="30" transform="matrix(.040335 0 0 0.04181 26.575797 43.13854)" fill="#d2dbed" stroke-width="0"/></g><g transform="translate(79.406368 70.147246)"><ellipse rx="30" ry="30" transform="matrix(.040335 0 0 0.04181 22.85776 43.13854)" fill="#d2dbed" stroke-width="0"/><ellipse rx="30" ry="30" transform="matrix(.040335 0 0 0.04181 58.654677 43.13854)" fill="#d2dbed" stroke-width="0"/><ellipse rx="30" ry="30" transform="matrix(.040335 0 0 0.04181 54.331377 43.13854)" fill="#d2dbed" stroke-width="0"/><ellipse rx="30" ry="30" transform="matrix(.040335 0 0 0.04181 50.18101 43.13854)" fill="#d2dbed" stroke-width="0"/><ellipse rx="30" ry="30" transform="matrix(.040335 0 0 0.04181 46.117109 43.13854)" fill="#d2dbed" stroke-width="0"/><ellipse rx="30" ry="30" transform="matrix(.040335 0 0 0.04181 42.22614 43.13854)" fill="#d2dbed" stroke-width="0"/><ellipse rx="30" ry="30" transform="matrix(.040335 0 0 0.04181 38.335171 43.13854)" fill="#d2dbed" stroke-width="0"/><ellipse rx="30" ry="30" transform="matrix(.040335 0 0 0.04181 34.617133 43.13854)" fill="#d2dbed" stroke-width="0"/><ellipse rx="30" ry="30" transform="matrix(.040335 0 0 0.04181 30.639698 43.13854)" fill="#d2dbed" stroke-width="0"/><ellipse rx="30" ry="30" transform="matrix(.040335 0 0 0.04181 26.575797 43.13854)" fill="#d2dbed" stroke-width="0"/></g><g transform="translate(78.543595 74.132915)"><ellipse rx="30" ry="30" transform="matrix(.040335 0 0 0.04181 22.85776 43.13854)" fill="#d2dbed" stroke-width="0"/><ellipse rx="30" ry="30" transform="matrix(.040335 0 0 0.04181 58.654677 43.13854)" fill="#d2dbed" stroke-width="0"/><ellipse rx="30" ry="30" transform="matrix(.040335 0 0 0.04181 54.331377 43.13854)" fill="#d2dbed" stroke-width="0"/><ellipse rx="30" ry="30" transform="matrix(.040335 0 0 0.04181 50.18101 43.13854)" fill="#d2dbed" stroke-width="0"/><ellipse rx="30" ry="30" transform="matrix(.040335 0 0 0.04181 46.117109 43.13854)" fill="#d2dbed" stroke-width="0"/><ellipse rx="30" ry="30" transform="matrix(.040335 0 0 0.04181 42.22614 43.13854)" fill="#d2dbed" stroke-width="0"/><ellipse rx="30" ry="30" transform="matrix(.040335 0 0 0.04181 38.335171 43.13854)" fill="#d2dbed" stroke-width="0"/><ellipse rx="30" ry="30" transform="matrix(.040335 0 0 0.04181 34.617133 43.13854)" fill="#d2dbed" stroke-width="0"/><ellipse rx="30" ry="30" transform="matrix(.040335 0 0 0.04181 30.639698 43.13854)" fill="#d2dbed" stroke-width="0"/><ellipse rx="30" ry="30" transform="matrix(.040335 0 0 0.04181 26.575797 43.13854)" fill="#d2dbed" stroke-width="0"/></g><g transform="translate(77.505541 78.242999)"><ellipse rx="30" ry="30" transform="matrix(.040335 0 0 0.04181 22.85776 43.13854)" fill="#d2dbed" stroke-width="0"/><ellipse rx="30" ry="30" transform="matrix(.040335 0 0 0.04181 58.654677 43.13854)" fill="#d2dbed" stroke-width="0"/><ellipse rx="30" ry="30" transform="matrix(.040335 0 0 0.04181 54.331377 43.13854)" fill="#d2dbed" stroke-width="0"/><ellipse rx="30" ry="30" transform="matrix(.040335 0 0 0.04181 50.18101 43.13854)" fill="#d2dbed" stroke-width="0"/><ellipse rx="30" ry="30" transform="matrix(.040335 0 0 0.04181 46.117109 43.13854)" fill="#d2dbed" stroke-width="0"/><ellipse rx="30" ry="30" transform="matrix(.040335 0 0 0.04181 42.22614 43.13854)" fill="#d2dbed" stroke-width="0"/><ellipse rx="30" ry="30" transform="matrix(.040335 0 0 0.04181 38.335171 43.13854)" fill="#d2dbed" stroke-width="0"/><ellipse rx="30" ry="30" transform="matrix(.040335 0 0 0.04181 34.617133 43.13854)" fill="#d2dbed" stroke-width="0"/><ellipse rx="30" ry="30" transform="matrix(.040335 0 0 0.04181 30.639698 43.13854)" fill="#d2dbed" stroke-width="0"/><ellipse rx="30" ry="30" transform="matrix(.040335 0 0 0.04181 26.575797 43.13854)" fill="#d2dbed" stroke-width="0"/></g><g transform="translate(76.725445 82.608592)"><ellipse rx="30" ry="30" transform="matrix(.040335 0 0 0.04181 22.85776 43.13854)" fill="#d2dbed" stroke-width="0"/><ellipse rx="30" ry="30" transform="matrix(.040335 0 0 0.04181 58.654677 43.13854)" fill="#d2dbed" stroke-width="0"/><ellipse rx="30" ry="30" transform="matrix(.040335 0 0 0.04181 54.331377 43.13854)" fill="#d2dbed" stroke-width="0"/><ellipse rx="30" ry="30" transform="matrix(.040335 0 0 0.04181 50.18101 43.13854)" fill="#d2dbed" stroke-width="0"/><ellipse rx="30" ry="30" transform="matrix(.040335 0 0 0.04181 46.117109 43.13854)" fill="#d2dbed" stroke-width="0"/><ellipse rx="30" ry="30" transform="matrix(.040335 0 0 0.04181 42.22614 43.13854)" fill="#d2dbed" stroke-width="0"/><ellipse rx="30" ry="30" transform="matrix(.040335 0 0 0.04181 38.335171 43.13854)" fill="#d2dbed" stroke-width="0"/><ellipse rx="30" ry="30" transform="matrix(.040335 0 0 0.04181 34.617133 43.13854)" fill="#d2dbed" stroke-width="0"/><ellipse rx="30" ry="30" transform="matrix(.040335 0 0 0.04181 30.639698 43.13854)" fill="#d2dbed" stroke-width="0"/><ellipse rx="30" ry="30" transform="matrix(.040335 0 0 0.04181 26.575797 43.13854)" fill="#d2dbed" stroke-width="0"/></g><g transform="translate(76.118767 86.643784)"><ellipse rx="30" ry="30" transform="matrix(.040335 0 0 0.04181 22.85776 43.13854)" fill="#d2dbed" stroke-width="0"/><ellipse rx="30" ry="30" transform="matrix(.040335 0 0 0.04181 58.654677 43.13854)" fill="#d2dbed" stroke-width="0"/><ellipse rx="30" ry="30" transform="matrix(.040335 0 0 0.04181 54.331377 43.13854)" fill="#d2dbed" stroke-width="0"/><ellipse rx="30" ry="30" transform="matrix(.040335 0 0 0.04181 50.18101 43.13854)" fill="#d2dbed" stroke-width="0"/><ellipse rx="30" ry="30" transform="matrix(.040335 0 0 0.04181 46.117109 43.13854)" fill="#d2dbed" stroke-width="0"/><ellipse rx="30" ry="30" transform="matrix(.040335 0 0 0.04181 42.22614 43.13854)" fill="#d2dbed" stroke-width="0"/><ellipse rx="30" ry="30" transform="matrix(.040335 0 0 0.04181 38.335171 43.13854)" fill="#d2dbed" stroke-width="0"/><ellipse rx="30" ry="30" transform="matrix(.040335 0 0 0.04181 34.617133 43.13854)" fill="#d2dbed" stroke-width="0"/><ellipse rx="30" ry="30" transform="matrix(.040335 0 0 0.04181 30.639698 43.13854)" fill="#d2dbed" stroke-width="0"/><ellipse rx="30" ry="30" transform="matrix(.040335 0 0 0.04181 26.575797 43.13854)" fill="#d2dbed" stroke-width="0"/></g><g transform="translate(75.515398 91.12737)"><ellipse rx="30" ry="30" transform="matrix(.040335 0 0 0.04181 22.85776 43.13854)" fill="#d2dbed" stroke-width="0"/><ellipse rx="30" ry="30" transform="matrix(.040335 0 0 0.04181 58.654677 43.13854)" fill="#d2dbed" stroke-width="0"/><ellipse rx="30" ry="30" transform="matrix(.040335 0 0 0.04181 54.331377 43.13854)" fill="#d2dbed" stroke-width="0"/><ellipse rx="30" ry="30" transform="matrix(.040335 0 0 0.04181 50.18101 43.13854)" fill="#d2dbed" stroke-width="0"/><ellipse rx="30" ry="30" transform="matrix(.040335 0 0 0.04181 46.117109 43.13854)" fill="#d2dbed" stroke-width="0"/><ellipse rx="30" ry="30" transform="matrix(.040335 0 0 0.04181 42.22614 43.13854)" fill="#d2dbed" stroke-width="0"/><ellipse rx="30" ry="30" transform="matrix(.040335 0 0 0.04181 38.335171 43.13854)" fill="#d2dbed" stroke-width="0"/><ellipse rx="30" ry="30" transform="matrix(.040335 0 0 0.04181 34.617133 43.13854)" fill="#d2dbed" stroke-width="0"/><ellipse rx="30" ry="30" transform="matrix(.040335 0 0 0.04181 30.639698 43.13854)" fill="#d2dbed" stroke-width="0"/><ellipse rx="30" ry="30" transform="matrix(.040335 0 0 0.04181 26.575797 43.13854)" fill="#d2dbed" stroke-width="0"/></g><g transform="translate(75.081649 95.365113)"><ellipse rx="30" ry="30" transform="matrix(.040335 0 0 0.04181 22.85776 43.13854)" fill="#d2dbed" stroke-width="0"/><ellipse rx="30" ry="30" transform="matrix(.040335 0 0 0.04181 58.654677 43.13854)" fill="#d2dbed" stroke-width="0"/><ellipse rx="30" ry="30" transform="matrix(.040335 0 0 0.04181 54.331377 43.13854)" fill="#d2dbed" stroke-width="0"/><ellipse rx="30" ry="30" transform="matrix(.040335 0 0 0.04181 50.18101 43.13854)" fill="#d2dbed" stroke-width="0"/><ellipse rx="30" ry="30" transform="matrix(.040335 0 0 0.04181 46.117109 43.13854)" fill="#d2dbed" stroke-width="0"/><ellipse rx="30" ry="30" transform="matrix(.040335 0 0 0.04181 42.22614 43.13854)" fill="#d2dbed" stroke-width="0"/><ellipse rx="30" ry="30" transform="matrix(.040335 0 0 0.04181 38.335171 43.13854)" fill="#d2dbed" stroke-width="0"/><ellipse rx="30" ry="30" transform="matrix(.040335 0 0 0.04181 34.617133 43.13854)" fill="#d2dbed" stroke-width="0"/><ellipse rx="30" ry="30" transform="matrix(.040335 0 0 0.04181 30.639698 43.13854)" fill="#d2dbed" stroke-width="0"/><ellipse rx="30" ry="30" transform="matrix(.040335 0 0 0.04181 26.575797 43.13854)" fill="#d2dbed" stroke-width="0"/></g><g transform="translate(74.911566 99.582022)"><ellipse rx="30" ry="30" transform="matrix(.040335 0 0 0.04181 22.85776 43.13854)" fill="#d2dbed" stroke-width="0"/><ellipse rx="30" ry="30" transform="matrix(.040335 0 0 0.04181 58.654677 43.13854)" fill="#d2dbed" stroke-width="0"/><ellipse rx="30" ry="30" transform="matrix(.040335 0 0 0.04181 54.331377 43.13854)" fill="#d2dbed" stroke-width="0"/><ellipse rx="30" ry="30" transform="matrix(.040335 0 0 0.04181 50.18101 43.13854)" fill="#d2dbed" stroke-width="0"/><ellipse rx="30" ry="30" transform="matrix(.040335 0 0 0.04181 46.117109 43.13854)" fill="#d2dbed" stroke-width="0"/><ellipse rx="30" ry="30" transform="matrix(.040335 0 0 0.04181 42.22614 43.13854)" fill="#d2dbed" stroke-width="0"/><ellipse rx="30" ry="30" transform="matrix(.040335 0 0 0.04181 38.335171 43.13854)" fill="#d2dbed" stroke-width="0"/><ellipse rx="30" ry="30" transform="matrix(.040335 0 0 0.04181 34.617133 43.13854)" fill="#d2dbed" stroke-width="0"/><ellipse rx="30" ry="30" transform="matrix(.040335 0 0 0.04181 30.639698 43.13854)" fill="#d2dbed" stroke-width="0"/><ellipse rx="30" ry="30" transform="matrix(.040335 0 0 0.04181 26.575797 43.13854)" fill="#d2dbed" stroke-width="0"/></g><g transform="translate(74.823679 103.415574)"><ellipse rx="30" ry="30" transform="matrix(.040335 0 0 0.04181 22.85776 43.13854)" fill="#d2dbed" stroke-width="0"/><ellipse rx="30" ry="30" transform="matrix(.040335 0 0 0.04181 58.654677 43.13854)" fill="#d2dbed" stroke-width="0"/><ellipse rx="30" ry="30" transform="matrix(.040335 0 0 0.04181 54.331377 43.13854)" fill="#d2dbed" stroke-width="0"/><ellipse rx="30" ry="30" transform="matrix(.040335 0 0 0.04181 50.18101 43.13854)" fill="#d2dbed" stroke-width="0"/><ellipse rx="30" ry="30" transform="matrix(.040335 0 0 0.04181 46.117109 43.13854)" fill="#d2dbed" stroke-width="0"/><ellipse rx="30" ry="30" transform="matrix(.040335 0 0 0.04181 42.22614 43.13854)" fill="#d2dbed" stroke-width="0"/><ellipse rx="30" ry="30" transform="matrix(.040335 0 0 0.04181 38.335171 43.13854)" fill="#d2dbed" stroke-width="0"/><ellipse rx="30" ry="30" transform="matrix(.040335 0 0 0.04181 34.617133 43.13854)" fill="#d2dbed" stroke-width="0"/><ellipse rx="30" ry="30" transform="matrix(.040335 0 0 0.04181 30.639698 43.13854)" fill="#d2dbed" stroke-width="0"/><ellipse rx="30" ry="30" transform="matrix(.040335 0 0 0.04181 26.575797 43.13854)" fill="#d2dbed" stroke-width="0"/></g><g transform="translate(74.651217 107.536647)"><ellipse rx="30" ry="30" transform="matrix(.040335 0 0 0.04181 22.85776 43.13854)" fill="#d2dbed" stroke-width="0"/><ellipse rx="30" ry="30" transform="matrix(.040335 0 0 0.04181 58.654677 43.13854)" fill="#d2dbed" stroke-width="0"/><ellipse rx="30" ry="30" transform="matrix(.040335 0 0 0.04181 54.331377 43.13854)" fill="#d2dbed" stroke-width="0"/><ellipse rx="30" ry="30" transform="matrix(.040335 0 0 0.04181 50.18101 43.13854)" fill="#d2dbed" stroke-width="0"/><ellipse rx="30" ry="30" transform="matrix(.040335 0 0 0.04181 46.117109 43.13854)" fill="#d2dbed" stroke-width="0"/><ellipse rx="30" ry="30" transform="matrix(.040335 0 0 0.04181 42.22614 43.13854)" fill="#d2dbed" stroke-width="0"/><ellipse rx="30" ry="30" transform="matrix(.040335 0 0 0.04181 38.335171 43.13854)" fill="#d2dbed" stroke-width="0"/><ellipse rx="30" ry="30" transform="matrix(.040335 0 0 0.04181 34.617133 43.13854)" fill="#d2dbed" stroke-width="0"/><ellipse rx="30" ry="30" transform="matrix(.040335 0 0 0.04181 30.639698 43.13854)" fill="#d2dbed" stroke-width="0"/><ellipse rx="30" ry="30" transform="matrix(.040335 0 0 0.04181 26.575797 43.13854)" fill="#d2dbed" stroke-width="0"/></g><g transform="translate(74.650268 111.918813)"><ellipse rx="30" ry="30" transform="matrix(.040335 0 0 0.04181 22.85776 43.13854)" fill="#d2dbed" stroke-width="0"/><ellipse rx="30" ry="30" transform="matrix(.040335 0 0 0.04181 58.654677 43.13854)" fill="#d2dbed" stroke-width="0"/><ellipse rx="30" ry="30" transform="matrix(.040335 0 0 0.04181 54.331377 43.13854)" fill="#d2dbed" stroke-width="0"/><ellipse rx="30" ry="30" transform="matrix(.040335 0 0 0.04181 50.18101 43.13854)" fill="#d2dbed" stroke-width="0"/><ellipse rx="30" ry="30" transform="matrix(.040335 0 0 0.04181 46.117109 43.13854)" fill="#d2dbed" stroke-width="0"/><ellipse rx="30" ry="30" transform="matrix(.040335 0 0 0.04181 42.22614 43.13854)" fill="#d2dbed" stroke-width="0"/><ellipse rx="30" ry="30" transform="matrix(.040335 0 0 0.04181 38.335171 43.13854)" fill="#d2dbed" stroke-width="0"/><ellipse rx="30" ry="30" transform="matrix(.040335 0 0 0.04181 34.617133 43.13854)" fill="#d2dbed" stroke-width="0"/><ellipse rx="30" ry="30" transform="matrix(.040335 0 0 0.04181 30.639698 43.13854)" fill="#d2dbed" stroke-width="0"/><ellipse rx="30" ry="30" transform="matrix(.040335 0 0 0.04181 26.575797 43.13854)" fill="#d2dbed" stroke-width="0"/></g><g transform="translate(74.908716 116.006592)"><ellipse rx="30" ry="30" transform="matrix(.040335 0 0 0.04181 22.85776 43.13854)" fill="#d2dbed" stroke-width="0"/><ellipse rx="30" ry="30" transform="matrix(.040335 0 0 0.04181 58.654677 43.13854)" fill="#d2dbed" stroke-width="0"/><ellipse rx="30" ry="30" transform="matrix(.040335 0 0 0.04181 54.331377 43.13854)" fill="#d2dbed" stroke-width="0"/><ellipse rx="30" ry="30" transform="matrix(.040335 0 0 0.04181 50.18101 43.13854)" fill="#d2dbed" stroke-width="0"/><ellipse rx="30" ry="30" transform="matrix(.040335 0 0 0.04181 46.117109 43.13854)" fill="#d2dbed" stroke-width="0"/><ellipse rx="30" ry="30" transform="matrix(.040335 0 0 0.04181 42.22614 43.13854)" fill="#d2dbed" stroke-width="0"/><ellipse rx="30" ry="30" transform="matrix(.040335 0 0 0.04181 38.335171 43.13854)" fill="#d2dbed" stroke-width="0"/><ellipse rx="30" ry="30" transform="matrix(.040335 0 0 0.04181 34.617133 43.13854)" fill="#d2dbed" stroke-width="0"/><ellipse rx="30" ry="30" transform="matrix(.040335 0 0 0.04181 30.639698 43.13854)" fill="#d2dbed" stroke-width="0"/><ellipse rx="30" ry="30" transform="matrix(.040335 0 0 0.04181 26.575797 43.13854)" fill="#d2dbed" stroke-width="0"/></g><g transform="translate(75.171436 120.179534)"><ellipse rx="30" ry="30" transform="matrix(.040335 0 0 0.04181 22.85776 43.13854)" fill="#d2dbed" stroke-width="0"/><ellipse rx="30" ry="30" transform="matrix(.040335 0 0 0.04181 58.654677 43.13854)" fill="#d2dbed" stroke-width="0"/><ellipse rx="30" ry="30" transform="matrix(.040335 0 0 0.04181 54.331377 43.13854)" fill="#d2dbed" stroke-width="0"/><ellipse rx="30" ry="30" transform="matrix(.040335 0 0 0.04181 50.18101 43.13854)" fill="#d2dbed" stroke-width="0"/><ellipse rx="30" ry="30" transform="matrix(.040335 0 0 0.04181 46.117109 43.13854)" fill="#d2dbed" stroke-width="0"/><ellipse rx="30" ry="30" transform="matrix(.040335 0 0 0.04181 42.22614 43.13854)" fill="#d2dbed" stroke-width="0"/><ellipse rx="30" ry="30" transform="matrix(.040335 0 0 0.04181 38.335171 43.13854)" fill="#d2dbed" stroke-width="0"/><ellipse rx="30" ry="30" transform="matrix(.040335 0 0 0.04181 34.617133 43.13854)" fill="#d2dbed" stroke-width="0"/><ellipse rx="30" ry="30" transform="matrix(.040335 0 0 0.04181 30.639698 43.13854)" fill="#d2dbed" stroke-width="0"/><ellipse rx="30" ry="30" transform="matrix(.040335 0 0 0.04181 26.575797 43.13854)" fill="#d2dbed" stroke-width="0"/></g><g transform="translate(75.68833 124.18215)"><ellipse rx="30" ry="30" transform="matrix(.040335 0 0 0.04181 22.85776 43.13854)" fill="#d2dbed" stroke-width="0"/><ellipse rx="30" ry="30" transform="matrix(.040335 0 0 0.04181 58.654677 43.13854)" fill="#d2dbed" stroke-width="0"/><ellipse rx="30" ry="30" transform="matrix(.040335 0 0 0.04181 54.331377 43.13854)" fill="#d2dbed" stroke-width="0"/><ellipse rx="30" ry="30" transform="matrix(.040335 0 0 0.04181 50.18101 43.13854)" fill="#d2dbed" stroke-width="0"/><ellipse rx="30" ry="30" transform="matrix(.040335 0 0 0.04181 46.117109 43.13854)" fill="#d2dbed" stroke-width="0"/><ellipse rx="30" ry="30" transform="matrix(.040335 0 0 0.04181 42.22614 43.13854)" fill="#d2dbed" stroke-width="0"/><ellipse rx="30" ry="30" transform="matrix(.040335 0 0 0.04181 38.335171 43.13854)" fill="#d2dbed" stroke-width="0"/><ellipse rx="30" ry="30" transform="matrix(.040335 0 0 0.04181 34.617133 43.13854)" fill="#d2dbed" stroke-width="0"/><ellipse rx="30" ry="30" transform="matrix(.040335 0 0 0.04181 30.639698 43.13854)" fill="#d2dbed" stroke-width="0"/><ellipse rx="30" ry="30" transform="matrix(.040335 0 0 0.04181 26.575797 43.13854)" fill="#d2dbed" stroke-width="0"/></g><g transform="translate(76.381487 128.014442)"><ellipse rx="30" ry="30" transform="matrix(.040335 0 0 0.04181 22.85776 43.13854)" fill="#d2dbed" stroke-width="0"/><ellipse rx="30" ry="30" transform="matrix(.040335 0 0 0.04181 58.654677 43.13854)" fill="#d2dbed" stroke-width="0"/><ellipse rx="30" ry="30" transform="matrix(.040335 0 0 0.04181 54.331377 43.13854)" fill="#d2dbed" stroke-width="0"/><ellipse rx="30" ry="30" transform="matrix(.040335 0 0 0.04181 50.18101 43.13854)" fill="#d2dbed" stroke-width="0"/><ellipse rx="30" ry="30" transform="matrix(.040335 0 0 0.04181 46.117109 43.13854)" fill="#d2dbed" stroke-width="0"/><ellipse rx="30" ry="30" transform="matrix(.040335 0 0 0.04181 42.22614 43.13854)" fill="#d2dbed" stroke-width="0"/><ellipse rx="30" ry="30" transform="matrix(.040335 0 0 0.04181 38.335171 43.13854)" fill="#d2dbed" stroke-width="0"/><ellipse rx="30" ry="30" transform="matrix(.040335 0 0 0.04181 34.617133 43.13854)" fill="#d2dbed" stroke-width="0"/><ellipse rx="30" ry="30" transform="matrix(.040335 0 0 0.04181 30.639698 43.13854)" fill="#d2dbed" stroke-width="0"/><ellipse rx="30" ry="30" transform="matrix(.040335 0 0 0.04181 26.575797 43.13854)" fill="#d2dbed" stroke-width="0"/></g><g transform="translate(76.984852 132.613193)"><ellipse rx="30" ry="30" transform="matrix(.040335 0 0 0.04181 22.85776 43.13854)" fill="#d2dbed" stroke-width="0"/><ellipse rx="30" ry="30" transform="matrix(.040335 0 0 0.04181 58.654677 43.13854)" fill="#d2dbed" stroke-width="0"/><ellipse rx="30" ry="30" transform="matrix(.040335 0 0 0.04181 54.331377 43.13854)" fill="#d2dbed" stroke-width="0"/><ellipse rx="30" ry="30" transform="matrix(.040335 0 0 0.04181 50.18101 43.13854)" fill="#d2dbed" stroke-width="0"/><ellipse rx="30" ry="30" transform="matrix(.040335 0 0 0.04181 46.117109 43.13854)" fill="#d2dbed" stroke-width="0"/><ellipse rx="30" ry="30" transform="matrix(.040335 0 0 0.04181 42.22614 43.13854)" fill="#d2dbed" stroke-width="0"/><ellipse rx="30" ry="30" transform="matrix(.040335 0 0 0.04181 38.335171 43.13854)" fill="#d2dbed" stroke-width="0"/><ellipse rx="30" ry="30" transform="matrix(.040335 0 0 0.04181 34.617133 43.13854)" fill="#d2dbed" stroke-width="0"/><ellipse rx="30" ry="30" transform="matrix(.040335 0 0 0.04181 30.639698 43.13854)" fill="#d2dbed" stroke-width="0"/><ellipse rx="30" ry="30" transform="matrix(.040335 0 0 0.04181 26.575797 43.13854)" fill="#d2dbed" stroke-width="0"/></g><g transform="translate(77.936444 136.700972)"><ellipse rx="30" ry="30" transform="matrix(.040335 0 0 0.04181 22.85776 43.13854)" fill="#d2dbed" stroke-width="0"/><ellipse rx="30" ry="30" transform="matrix(.040335 0 0 0.04181 58.654677 43.13854)" fill="#d2dbed" stroke-width="0"/><ellipse rx="30" ry="30" transform="matrix(.040335 0 0 0.04181 54.331377 43.13854)" fill="#d2dbed" stroke-width="0"/><ellipse rx="30" ry="30" transform="matrix(.040335 0 0 0.04181 50.18101 43.13854)" fill="#d2dbed" stroke-width="0"/><ellipse rx="30" ry="30" transform="matrix(.040335 0 0 0.04181 46.117109 43.13854)" fill="#d2dbed" stroke-width="0"/><ellipse rx="30" ry="30" transform="matrix(.040335 0 0 0.04181 42.22614 43.13854)" fill="#d2dbed" stroke-width="0"/><ellipse rx="30" ry="30" transform="matrix(.040335 0 0 0.04181 38.335171 43.13854)" fill="#d2dbed" stroke-width="0"/><ellipse rx="30" ry="30" transform="matrix(.040335 0 0 0.04181 34.617133 43.13854)" fill="#d2dbed" stroke-width="0"/><ellipse rx="30" ry="30" transform="matrix(.040335 0 0 0.04181 30.639698 43.13854)" fill="#d2dbed" stroke-width="0"/><ellipse rx="30" ry="30" transform="matrix(.040335 0 0 0.04181 26.575797 43.13854)" fill="#d2dbed" stroke-width="0"/></g><g transform="translate(78.974522 140.691273)"><ellipse rx="30" ry="30" transform="matrix(.040335 0 0 0.04181 22.85776 43.13854)" fill="#d2dbed" stroke-width="0"/><ellipse rx="30" ry="30" transform="matrix(.040335 0 0 0.04181 58.654677 43.13854)" fill="#d2dbed" stroke-width="0"/><ellipse rx="30" ry="30" transform="matrix(.040335 0 0 0.04181 54.331377 43.13854)" fill="#d2dbed" stroke-width="0"/><ellipse rx="30" ry="30" transform="matrix(.040335 0 0 0.04181 50.18101 43.13854)" fill="#d2dbed" stroke-width="0"/><ellipse rx="30" ry="30" transform="matrix(.040335 0 0 0.04181 46.117109 43.13854)" fill="#d2dbed" stroke-width="0"/><ellipse rx="30" ry="30" transform="matrix(.040335 0 0 0.04181 42.22614 43.13854)" fill="#d2dbed" stroke-width="0"/><ellipse rx="30" ry="30" transform="matrix(.040335 0 0 0.04181 38.335171 43.13854)" fill="#d2dbed" stroke-width="0"/><ellipse rx="30" ry="30" transform="matrix(.040335 0 0 0.04181 34.617133 43.13854)" fill="#d2dbed" stroke-width="0"/><ellipse rx="30" ry="30" transform="matrix(.040335 0 0 0.04181 30.639698 43.13854)" fill="#d2dbed" stroke-width="0"/><ellipse rx="30" ry="30" transform="matrix(.040335 0 0 0.04181 26.575797 43.13854)" fill="#d2dbed" stroke-width="0"/></g><g transform="translate(79.75177 144.854145)"><ellipse rx="30" ry="30" transform="matrix(.040335 0 0 0.04181 22.85776 43.13854)" fill="#d2dbed" stroke-width="0"/><ellipse rx="30" ry="30" transform="matrix(.040335 0 0 0.04181 58.654677 43.13854)" fill="#d2dbed" stroke-width="0"/><ellipse rx="30" ry="30" transform="matrix(.040335 0 0 0.04181 54.331377 43.13854)" fill="#d2dbed" stroke-width="0"/><ellipse rx="30" ry="30" transform="matrix(.040335 0 0 0.04181 50.18101 43.13854)" fill="#d2dbed" stroke-width="0"/><ellipse rx="30" ry="30" transform="matrix(.040335 0 0 0.04181 46.117109 43.13854)" fill="#d2dbed" stroke-width="0"/><ellipse rx="30" ry="30" transform="matrix(.040335 0 0 0.04181 42.22614 43.13854)" fill="#d2dbed" stroke-width="0"/><ellipse rx="30" ry="30" transform="matrix(.040335 0 0 0.04181 38.335171 43.13854)" fill="#d2dbed" stroke-width="0"/><ellipse rx="30" ry="30" transform="matrix(.040335 0 0 0.04181 34.617133 43.13854)" fill="#d2dbed" stroke-width="0"/><ellipse rx="30" ry="30" transform="matrix(.040335 0 0 0.04181 30.639698 43.13854)" fill="#d2dbed" stroke-width="0"/><ellipse rx="30" ry="30" transform="matrix(.040335 0 0 0.04181 26.575797 43.13854)" fill="#d2dbed" stroke-width="0"/></g><g transform="translate(80.961817 149.165341)"><ellipse rx="30" ry="30" transform="matrix(.040335 0 0 0.04181 22.85776 43.13854)" fill="#d2dbed" stroke-width="0"/><ellipse rx="30" ry="30" transform="matrix(.040335 0 0 0.04181 58.654677 43.13854)" fill="#d2dbed" stroke-width="0"/><ellipse rx="30" ry="30" transform="matrix(.040335 0 0 0.04181 54.331377 43.13854)" fill="#d2dbed" stroke-width="0"/><ellipse rx="30" ry="30" transform="matrix(.040335 0 0 0.04181 50.18101 43.13854)" fill="#d2dbed" stroke-width="0"/><ellipse rx="30" ry="30" transform="matrix(.040335 0 0 0.04181 46.117109 43.13854)" fill="#d2dbed" stroke-width="0"/><ellipse rx="30" ry="30" transform="matrix(.040335 0 0 0.04181 42.22614 43.13854)" fill="#d2dbed" stroke-width="0"/><ellipse rx="30" ry="30" transform="matrix(.040335 0 0 0.04181 38.335171 43.13854)" fill="#d2dbed" stroke-width="0"/><ellipse rx="30" ry="30" transform="matrix(.040335 0 0 0.04181 34.617133 43.13854)" fill="#d2dbed" stroke-width="0"/><ellipse rx="30" ry="30" transform="matrix(.040335 0 0 0.04181 30.639698 43.13854)" fill="#d2dbed" stroke-width="0"/><ellipse rx="30" ry="30" transform="matrix(.040335 0 0 0.04181 26.575797 43.13854)" fill="#d2dbed" stroke-width="0"/></g><g transform="translate(82.173759 152.965041)"><ellipse rx="30" ry="30" transform="matrix(.040335 0 0 0.04181 22.85776 43.13854)" fill="#d2dbed" stroke-width="0"/><ellipse rx="30" ry="30" transform="matrix(.040335 0 0 0.04181 58.654677 43.13854)" fill="#d2dbed" stroke-width="0"/><ellipse rx="30" ry="30" transform="matrix(.040335 0 0 0.04181 54.331377 43.13854)" fill="#d2dbed" stroke-width="0"/><ellipse rx="30" ry="30" transform="matrix(.040335 0 0 0.04181 50.18101 43.13854)" fill="#d2dbed" stroke-width="0"/><ellipse rx="30" ry="30" transform="matrix(.040335 0 0 0.04181 46.117109 43.13854)" fill="#d2dbed" stroke-width="0"/><ellipse rx="30" ry="30" transform="matrix(.040335 0 0 0.04181 42.22614 43.13854)" fill="#d2dbed" stroke-width="0"/><ellipse rx="30" ry="30" transform="matrix(.040335 0 0 0.04181 38.335171 43.13854)" fill="#d2dbed" stroke-width="0"/><ellipse rx="30" ry="30" transform="matrix(.040335 0 0 0.04181 34.617133 43.13854)" fill="#d2dbed" stroke-width="0"/><ellipse rx="30" ry="30" transform="matrix(.040335 0 0 0.04181 30.639698 43.13854)" fill="#d2dbed" stroke-width="0"/><ellipse rx="30" ry="30" transform="matrix(.040335 0 0 0.04181 26.575797 43.13854)" fill="#d2dbed" stroke-width="0"/></g><g transform="translate(83.471683 156.837812)"><ellipse rx="30" ry="30" transform="matrix(.040335 0 0 0.04181 22.85776 43.13854)" fill="#d2dbed" stroke-width="0"/><ellipse rx="30" ry="30" transform="matrix(.040335 0 0 0.04181 58.654677 43.13854)" fill="#d2dbed" stroke-width="0"/><ellipse rx="30" ry="30" transform="matrix(.040335 0 0 0.04181 54.331377 43.13854)" fill="#d2dbed" stroke-width="0"/><ellipse rx="30" ry="30" transform="matrix(.040335 0 0 0.04181 50.18101 43.13854)" fill="#d2dbed" stroke-width="0"/><ellipse rx="30" ry="30" transform="matrix(.040335 0 0 0.04181 46.117109 43.13854)" fill="#d2dbed" stroke-width="0"/><ellipse rx="30" ry="30" transform="matrix(.040335 0 0 0.04181 42.22614 43.13854)" fill="#d2dbed" stroke-width="0"/><ellipse rx="30" ry="30" transform="matrix(.040335 0 0 0.04181 38.335171 43.13854)" fill="#d2dbed" stroke-width="0"/><ellipse rx="30" ry="30" transform="matrix(.040335 0 0 0.04181 34.617133 43.13854)" fill="#d2dbed" stroke-width="0"/><ellipse rx="30" ry="30" transform="matrix(.040335 0 0 0.04181 30.639698 43.13854)" fill="#d2dbed" stroke-width="0"/><ellipse rx="30" ry="30" transform="matrix(.040335 0 0 0.04181 26.575797 43.13854)" fill="#d2dbed" stroke-width="0"/></g><g transform="translate(84.854674 160.801282)"><ellipse rx="30" ry="30" transform="matrix(.040335 0 0 0.04181 22.85776 43.13854)" fill="#d2dbed" stroke-width="0"/><ellipse rx="30" ry="30" transform="matrix(.040335 0 0 0.04181 58.654677 43.13854)" fill="#d2dbed" stroke-width="0"/><ellipse rx="30" ry="30" transform="matrix(.040335 0 0 0.04181 54.331377 43.13854)" fill="#d2dbed" stroke-width="0"/><ellipse rx="30" ry="30" transform="matrix(.040335 0 0 0.04181 50.18101 43.13854)" fill="#d2dbed" stroke-width="0"/><ellipse rx="30" ry="30" transform="matrix(.040335 0 0 0.04181 46.117109 43.13854)" fill="#d2dbed" stroke-width="0"/><ellipse rx="30" ry="30" transform="matrix(.040335 0 0 0.04181 42.22614 43.13854)" fill="#d2dbed" stroke-width="0"/><ellipse rx="30" ry="30" transform="matrix(.040335 0 0 0.04181 38.335171 43.13854)" fill="#d2dbed" stroke-width="0"/><ellipse rx="30" ry="30" transform="matrix(.040335 0 0 0.04181 34.617133 43.13854)" fill="#d2dbed" stroke-width="0"/><ellipse rx="30" ry="30" transform="matrix(.040335 0 0 0.04181 30.639698 43.13854)" fill="#d2dbed" stroke-width="0"/><ellipse rx="30" ry="30" transform="matrix(.040335 0 0 0.04181 26.575797 43.13854)" fill="#d2dbed" stroke-width="0"/></g><g transform="translate(86.236712 164.742576)"><ellipse rx="30" ry="30" transform="matrix(.040335 0 0 0.04181 22.85776 43.13854)" fill="#d2dbed" stroke-width="0"/><ellipse rx="30" ry="30" transform="matrix(.040335 0 0 0.04181 58.654677 43.13854)" fill="#d2dbed" stroke-width="0"/><ellipse rx="30" ry="30" transform="matrix(.040335 0 0 0.04181 54.331377 43.13854)" fill="#d2dbed" stroke-width="0"/><ellipse rx="30" ry="30" transform="matrix(.040335 0 0 0.04181 50.18101 43.13854)" fill="#d2dbed" stroke-width="0"/><ellipse rx="30" ry="30" transform="matrix(.040335 0 0 0.04181 46.117109 43.13854)" fill="#d2dbed" stroke-width="0"/><ellipse rx="30" ry="30" transform="matrix(.040335 0 0 0.04181 42.22614 43.13854)" fill="#d2dbed" stroke-width="0"/><ellipse rx="30" ry="30" transform="matrix(.040335 0 0 0.04181 38.335171 43.13854)" fill="#d2dbed" stroke-width="0"/><ellipse rx="30" ry="30" transform="matrix(.040335 0 0 0.04181 34.617133 43.13854)" fill="#d2dbed" stroke-width="0"/><ellipse rx="30" ry="30" transform="matrix(.040335 0 0 0.04181 30.639698 43.13854)" fill="#d2dbed" stroke-width="0"/><ellipse rx="30" ry="30" transform="matrix(.040335 0 0 0.04181 26.575797 43.13854)" fill="#d2dbed" stroke-width="0"/></g><g transform="translate(87.968385 168.286868)"><ellipse rx="30" ry="30" transform="matrix(.040335 0 0 0.04181 22.85776 43.13854)" fill="#d2dbed" stroke-width="0"/><ellipse rx="30" ry="30" transform="matrix(.040335 0 0 0.04181 58.654677 43.13854)" fill="#d2dbed" stroke-width="0"/><ellipse rx="30" ry="30" transform="matrix(.040335 0 0 0.04181 54.331377 43.13854)" fill="#d2dbed" stroke-width="0"/><ellipse rx="30" ry="30" transform="matrix(.040335 0 0 0.04181 50.18101 43.13854)" fill="#d2dbed" stroke-width="0"/><ellipse rx="30" ry="30" transform="matrix(.040335 0 0 0.04181 46.117109 43.13854)" fill="#d2dbed" stroke-width="0"/><ellipse rx="30" ry="30" transform="matrix(.040335 0 0 0.04181 42.22614 43.13854)" fill="#d2dbed" stroke-width="0"/><ellipse rx="30" ry="30" transform="matrix(.040335 0 0 0.04181 38.335171 43.13854)" fill="#d2dbed" stroke-width="0"/><ellipse rx="30" ry="30" transform="matrix(.040335 0 0 0.04181 34.617133 43.13854)" fill="#d2dbed" stroke-width="0"/><ellipse rx="30" ry="30" transform="matrix(.040335 0 0 0.04181 30.639698 43.13854)" fill="#d2dbed" stroke-width="0"/><ellipse rx="30" ry="30" transform="matrix(.040335 0 0 0.04181 26.575797 43.13854)" fill="#d2dbed" stroke-width="0"/></g><g transform="translate(89.609821 172.146278)"><ellipse rx="30" ry="30" transform="matrix(.040335 0 0 0.04181 22.85776 43.13854)" fill="#d2dbed" stroke-width="0"/><ellipse rx="30" ry="30" transform="matrix(.040335 0 0 0.04181 58.654677 43.13854)" fill="#d2dbed" stroke-width="0"/><ellipse rx="30" ry="30" transform="matrix(.040335 0 0 0.04181 54.331377 43.13854)" fill="#d2dbed" stroke-width="0"/><ellipse rx="30" ry="30" transform="matrix(.040335 0 0 0.04181 50.18101 43.13854)" fill="#d2dbed" stroke-width="0"/><ellipse rx="30" ry="30" transform="matrix(.040335 0 0 0.04181 46.117109 43.13854)" fill="#d2dbed" stroke-width="0"/><ellipse rx="30" ry="30" transform="matrix(.040335 0 0 0.04181 42.22614 43.13854)" fill="#d2dbed" stroke-width="0"/><ellipse rx="30" ry="30" transform="matrix(.040335 0 0 0.04181 38.335171 43.13854)" fill="#d2dbed" stroke-width="0"/><ellipse rx="30" ry="30" transform="matrix(.040335 0 0 0.04181 34.617133 43.13854)" fill="#d2dbed" stroke-width="0"/><ellipse rx="30" ry="30" transform="matrix(.040335 0 0 0.04181 30.639698 43.13854)" fill="#d2dbed" stroke-width="0"/><ellipse rx="30" ry="30" transform="matrix(.040335 0 0 0.04181 26.575797 43.13854)" fill="#d2dbed" stroke-width="0"/></g><g transform="translate(91.425617 175.962406)"><ellipse rx="30" ry="30" transform="matrix(.040335 0 0 0.04181 22.85776 43.13854)" fill="#d2dbed" stroke-width="0"/><ellipse rx="30" ry="30" transform="matrix(.040335 0 0 0.04181 58.654677 43.13854)" fill="#d2dbed" stroke-width="0"/><ellipse rx="30" ry="30" transform="matrix(.040335 0 0 0.04181 54.331377 43.13854)" fill="#d2dbed" stroke-width="0"/><ellipse rx="30" ry="30" transform="matrix(.040335 0 0 0.04181 50.18101 43.13854)" fill="#d2dbed" stroke-width="0"/><ellipse rx="30" ry="30" transform="matrix(.040335 0 0 0.04181 46.117109 43.13854)" fill="#d2dbed" stroke-width="0"/><ellipse rx="30" ry="30" transform="matrix(.040335 0 0 0.04181 42.22614 43.13854)" fill="#d2dbed" stroke-width="0"/><ellipse rx="30" ry="30" transform="matrix(.040335 0 0 0.04181 38.335171 43.13854)" fill="#d2dbed" stroke-width="0"/><ellipse rx="30" ry="30" transform="matrix(.040335 0 0 0.04181 34.617133 43.13854)" fill="#d2dbed" stroke-width="0"/><ellipse rx="30" ry="30" transform="matrix(.040335 0 0 0.04181 30.639698 43.13854)" fill="#d2dbed" stroke-width="0"/><ellipse rx="30" ry="30" transform="matrix(.040335 0 0 0.04181 26.575797 43.13854)" fill="#d2dbed" stroke-width="0"/></g><g transform="translate(93.329274 179.531432)"><ellipse rx="30" ry="30" transform="matrix(.040335 0 0 0.04181 22.85776 43.13854)" fill="#d2dbed" stroke-width="0"/><ellipse rx="30" ry="30" transform="matrix(.040335 0 0 0.04181 58.654677 43.13854)" fill="#d2dbed" stroke-width="0"/><ellipse rx="30" ry="30" transform="matrix(.040335 0 0 0.04181 54.331377 43.13854)" fill="#d2dbed" stroke-width="0"/><ellipse rx="30" ry="30" transform="matrix(.040335 0 0 0.04181 50.18101 43.13854)" fill="#d2dbed" stroke-width="0"/><ellipse rx="30" ry="30" transform="matrix(.040335 0 0 0.04181 46.117109 43.13854)" fill="#d2dbed" stroke-width="0"/><ellipse rx="30" ry="30" transform="matrix(.040335 0 0 0.04181 42.22614 43.13854)" fill="#d2dbed" stroke-width="0"/><ellipse rx="30" ry="30" transform="matrix(.040335 0 0 0.04181 38.335171 43.13854)" fill="#d2dbed" stroke-width="0"/><ellipse rx="30" ry="30" transform="matrix(.040335 0 0 0.04181 34.617133 43.13854)" fill="#d2dbed" stroke-width="0"/><ellipse rx="30" ry="30" transform="matrix(.040335 0 0 0.04181 30.639698 43.13854)" fill="#d2dbed" stroke-width="0"/><ellipse rx="30" ry="30" transform="matrix(.040335 0 0 0.04181 26.575797 43.13854)" fill="#d2dbed" stroke-width="0"/></g><g transform="translate(95.834909 183.183787)"><ellipse rx="30" ry="30" transform="matrix(.040335 0 0 0.04181 22.85776 43.13854)" fill="#d2dbed" stroke-width="0"/><ellipse rx="30" ry="30" transform="matrix(.040335 0 0 0.04181 58.654677 43.13854)" fill="#d2dbed" stroke-width="0"/><ellipse rx="30" ry="30" transform="matrix(.040335 0 0 0.04181 54.331377 43.13854)" fill="#d2dbed" stroke-width="0"/><ellipse rx="30" ry="30" transform="matrix(.040335 0 0 0.04181 50.18101 43.13854)" fill="#d2dbed" stroke-width="0"/><ellipse rx="30" ry="30" transform="matrix(.040335 0 0 0.04181 46.117109 43.13854)" fill="#d2dbed" stroke-width="0"/><ellipse rx="30" ry="30" transform="matrix(.040335 0 0 0.04181 42.22614 43.13854)" fill="#d2dbed" stroke-width="0"/><ellipse rx="30" ry="30" transform="matrix(.040335 0 0 0.04181 38.335171 43.13854)" fill="#d2dbed" stroke-width="0"/><ellipse rx="30" ry="30" transform="matrix(.040335 0 0 0.04181 34.617133 43.13854)" fill="#d2dbed" stroke-width="0"/><ellipse rx="30" ry="30" transform="matrix(.040335 0 0 0.04181 30.639698 43.13854)" fill="#d2dbed" stroke-width="0"/><ellipse rx="30" ry="30" transform="matrix(.040335 0 0 0.04181 26.575797 43.13854)" fill="#d2dbed" stroke-width="0"/></g><g transform="translate(98.083032 186.998469)"><ellipse rx="30" ry="30" transform="matrix(.040335 0 0 0.04181 22.85776 43.13854)" fill="#d2dbed" stroke-width="0"/><ellipse rx="30" ry="30" transform="matrix(.040335 0 0 0.04181 58.654677 43.13854)" fill="#d2dbed" stroke-width="0"/><ellipse rx="30" ry="30" transform="matrix(.040335 0 0 0.04181 54.331377 43.13854)" fill="#d2dbed" stroke-width="0"/><ellipse rx="30" ry="30" transform="matrix(.040335 0 0 0.04181 50.18101 43.13854)" fill="#d2dbed" stroke-width="0"/><ellipse rx="30" ry="30" transform="matrix(.040335 0 0 0.04181 46.117109 43.13854)" fill="#d2dbed" stroke-width="0"/><ellipse rx="30" ry="30" transform="matrix(.040335 0 0 0.04181 42.22614 43.13854)" fill="#d2dbed" stroke-width="0"/><ellipse rx="30" ry="30" transform="matrix(.040335 0 0 0.04181 38.335171 43.13854)" fill="#d2dbed" stroke-width="0"/><ellipse rx="30" ry="30" transform="matrix(.040335 0 0 0.04181 34.617133 43.13854)" fill="#d2dbed" stroke-width="0"/><ellipse rx="30" ry="30" transform="matrix(.040335 0 0 0.04181 30.639698 43.13854)" fill="#d2dbed" stroke-width="0"/><ellipse rx="30" ry="30" transform="matrix(.040335 0 0 0.04181 26.575797 43.13854)" fill="#d2dbed" stroke-width="0"/></g><g transform="translate(100.761099 190.456794)"><ellipse rx="30" ry="30" transform="matrix(.040335 0 0 0.04181 22.85776 43.13854)" fill="#d2dbed" stroke-width="0"/><ellipse rx="30" ry="30" transform="matrix(.040335 0 0 0.04181 58.654677 43.13854)" fill="#d2dbed" stroke-width="0"/><ellipse rx="30" ry="30" transform="matrix(.040335 0 0 0.04181 54.331377 43.13854)" fill="#d2dbed" stroke-width="0"/><ellipse rx="30" ry="30" transform="matrix(.040335 0 0 0.04181 50.18101 43.13854)" fill="#d2dbed" stroke-width="0"/><ellipse rx="30" ry="30" transform="matrix(.040335 0 0 0.04181 46.117109 43.13854)" fill="#d2dbed" stroke-width="0"/><ellipse rx="30" ry="30" transform="matrix(.040335 0 0 0.04181 42.22614 43.13854)" fill="#d2dbed" stroke-width="0"/><ellipse rx="30" ry="30" transform="matrix(.040335 0 0 0.04181 38.335171 43.13854)" fill="#d2dbed" stroke-width="0"/><ellipse rx="30" ry="30" transform="matrix(.040335 0 0 0.04181 34.617133 43.13854)" fill="#d2dbed" stroke-width="0"/><ellipse rx="30" ry="30" transform="matrix(.040335 0 0 0.04181 30.639698 43.13854)" fill="#d2dbed" stroke-width="0"/><ellipse rx="30" ry="30" transform="matrix(.040335 0 0 0.04181 26.575797 43.13854)" fill="#d2dbed" stroke-width="0"/></g><g transform="translate(103.356983 193.768641)"><ellipse rx="30" ry="30" transform="matrix(.040335 0 0 0.04181 22.85776 43.13854)" fill="#d2dbed" stroke-width="0"/><ellipse rx="30" ry="30" transform="matrix(.040335 0 0 0.04181 58.654677 43.13854)" fill="#d2dbed" stroke-width="0"/><ellipse rx="30" ry="30" transform="matrix(.040335 0 0 0.04181 54.331377 43.13854)" fill="#d2dbed" stroke-width="0"/><ellipse rx="30" ry="30" transform="matrix(.040335 0 0 0.04181 50.18101 43.13854)" fill="#d2dbed" stroke-width="0"/><ellipse rx="30" ry="30" transform="matrix(.040335 0 0 0.04181 46.117109 43.13854)" fill="#d2dbed" stroke-width="0"/><ellipse rx="30" ry="30" transform="matrix(.040335 0 0 0.04181 42.22614 43.13854)" fill="#d2dbed" stroke-width="0"/><ellipse rx="30" ry="30" transform="matrix(.040335 0 0 0.04181 38.335171 43.13854)" fill="#d2dbed" stroke-width="0"/><ellipse rx="30" ry="30" transform="matrix(.040335 0 0 0.04181 34.617133 43.13854)" fill="#d2dbed" stroke-width="0"/><ellipse rx="30" ry="30" transform="matrix(.040335 0 0 0.04181 30.639698 43.13854)" fill="#d2dbed" stroke-width="0"/><ellipse rx="30" ry="30" transform="matrix(.040335 0 0 0.04181 26.575797 43.13854)" fill="#d2dbed" stroke-width="0"/></g><g transform="translate(106.383289 197.781595)"><ellipse rx="30" ry="30" transform="matrix(.040335 0 0 0.04181 22.85776 43.13854)" fill="#d2dbed" stroke-width="0"/><ellipse rx="30" ry="30" transform="matrix(.040335 0 0 0.04181 58.654677 43.13854)" fill="#d2dbed" stroke-width="0"/><ellipse rx="30" ry="30" transform="matrix(.040335 0 0 0.04181 54.331377 43.13854)" fill="#d2dbed" stroke-width="0"/><ellipse rx="30" ry="30" transform="matrix(.040335 0 0 0.04181 50.18101 43.13854)" fill="#d2dbed" stroke-width="0"/><ellipse rx="30" ry="30" transform="matrix(.040335 0 0 0.04181 46.117109 43.13854)" fill="#d2dbed" stroke-width="0"/><ellipse rx="30" ry="30" transform="matrix(.040335 0 0 0.04181 42.22614 43.13854)" fill="#d2dbed" stroke-width="0"/><ellipse rx="30" ry="30" transform="matrix(.040335 0 0 0.04181 38.335171 43.13854)" fill="#d2dbed" stroke-width="0"/><ellipse rx="30" ry="30" transform="matrix(.040335 0 0 0.04181 34.617133 43.13854)" fill="#d2dbed" stroke-width="0"/><ellipse rx="30" ry="30" transform="matrix(.040335 0 0 0.04181 30.639698 43.13854)" fill="#d2dbed" stroke-width="0"/><ellipse rx="30" ry="30" transform="matrix(.040335 0 0 0.04181 26.575797 43.13854)" fill="#d2dbed" stroke-width="0"/></g><g transform="translate(109.24378 201.133646)"><ellipse rx="30" ry="30" transform="matrix(.040335 0 0 0.04181 22.85776 43.13854)" fill="#d2dbed" stroke-width="0"/><ellipse rx="30" ry="30" transform="matrix(.040335 0 0 0.04181 58.654677 43.13854)" fill="#d2dbed" stroke-width="0"/><ellipse rx="30" ry="30" transform="matrix(.040335 0 0 0.04181 54.331377 43.13854)" fill="#d2dbed" stroke-width="0"/><ellipse rx="30" ry="30" transform="matrix(.040335 0 0 0.04181 50.18101 43.13854)" fill="#d2dbed" stroke-width="0"/><ellipse rx="30" ry="30" transform="matrix(.040335 0 0 0.04181 46.117109 43.13854)" fill="#d2dbed" stroke-width="0"/><ellipse rx="30" ry="30" transform="matrix(.040335 0 0 0.04181 42.22614 43.13854)" fill="#d2dbed" stroke-width="0"/><ellipse rx="30" ry="30" transform="matrix(.040335 0 0 0.04181 38.335171 43.13854)" fill="#d2dbed" stroke-width="0"/><ellipse rx="30" ry="30" transform="matrix(.040335 0 0 0.04181 34.617133 43.13854)" fill="#d2dbed" stroke-width="0"/><ellipse rx="30" ry="30" transform="matrix(.040335 0 0 0.04181 30.639698 43.13854)" fill="#d2dbed" stroke-width="0"/><ellipse rx="30" ry="30" transform="matrix(.040335 0 0 0.04181 26.575797 43.13854)" fill="#d2dbed" stroke-width="0"/></g><g transform="translate(112.088617 204.576659)"><ellipse rx="30" ry="30" transform="matrix(.040335 0 0 0.04181 22.85776 43.13854)" fill="#d2dbed" stroke-width="0"/><ellipse rx="30" ry="30" transform="matrix(.040335 0 0 0.04181 58.654677 43.13854)" fill="#d2dbed" stroke-width="0"/><ellipse rx="30" ry="30" transform="matrix(.040335 0 0 0.04181 54.331377 43.13854)" fill="#d2dbed" stroke-width="0"/><ellipse rx="30" ry="30" transform="matrix(.040335 0 0 0.04181 50.18101 43.13854)" fill="#d2dbed" stroke-width="0"/><ellipse rx="30" ry="30" transform="matrix(.040335 0 0 0.04181 46.117109 43.13854)" fill="#d2dbed" stroke-width="0"/><ellipse rx="30" ry="30" transform="matrix(.040335 0 0 0.04181 42.22614 43.13854)" fill="#d2dbed" stroke-width="0"/><ellipse rx="30" ry="30" transform="matrix(.040335 0 0 0.04181 38.335171 43.13854)" fill="#d2dbed" stroke-width="0"/><ellipse rx="30" ry="30" transform="matrix(.040335 0 0 0.04181 34.617133 43.13854)" fill="#d2dbed" stroke-width="0"/><ellipse rx="30" ry="30" transform="matrix(.040335 0 0 0.04181 30.639698 43.13854)" fill="#d2dbed" stroke-width="0"/><ellipse rx="30" ry="30" transform="matrix(.040335 0 0 0.04181 26.575797 43.13854)" fill="#d2dbed" stroke-width="0"/></g><g transform="translate(115.375278 208.396906)"><ellipse rx="30" ry="30" transform="matrix(.040335 0 0 0.04181 22.85776 43.13854)" fill="#d2dbed" stroke-width="0"/><ellipse rx="30" ry="30" transform="matrix(.040335 0 0 0.04181 58.654677 43.13854)" fill="#d2dbed" stroke-width="0"/><ellipse rx="30" ry="30" transform="matrix(.040335 0 0 0.04181 54.331377 43.13854)" fill="#d2dbed" stroke-width="0"/><ellipse rx="30" ry="30" transform="matrix(.040335 0 0 0.04181 50.18101 43.13854)" fill="#d2dbed" stroke-width="0"/><ellipse rx="30" ry="30" transform="matrix(.040335 0 0 0.04181 46.117109 43.13854)" fill="#d2dbed" stroke-width="0"/><ellipse rx="30" ry="30" transform="matrix(.040335 0 0 0.04181 42.22614 43.13854)" fill="#d2dbed" stroke-width="0"/><ellipse rx="30" ry="30" transform="matrix(.040335 0 0 0.04181 38.335171 43.13854)" fill="#d2dbed" stroke-width="0"/><ellipse rx="30" ry="30" transform="matrix(.040335 0 0 0.04181 34.617133 43.13854)" fill="#d2dbed" stroke-width="0"/><ellipse rx="30" ry="30" transform="matrix(.040335 0 0 0.04181 30.639698 43.13854)" fill="#d2dbed" stroke-width="0"/><ellipse rx="30" ry="30" transform="matrix(.040335 0 0 0.04181 26.575797 43.13854)" fill="#d2dbed" stroke-width="0"/></g><g transform="translate(119.700461 212.217152)"><ellipse rx="30" ry="30" transform="matrix(.040335 0 0 0.04181 22.85776 43.13854)" fill="#d2dbed" stroke-width="0"/><ellipse rx="30" ry="30" transform="matrix(.040335 0 0 0.04181 58.654677 43.13854)" fill="#d2dbed" stroke-width="0"/><ellipse rx="30" ry="30" transform="matrix(.040335 0 0 0.04181 54.331377 43.13854)" fill="#d2dbed" stroke-width="0"/><ellipse rx="30" ry="30" transform="matrix(.040335 0 0 0.04181 50.18101 43.13854)" fill="#d2dbed" stroke-width="0"/><ellipse rx="30" ry="30" transform="matrix(.040335 0 0 0.04181 46.117109 43.13854)" fill="#d2dbed" stroke-width="0"/><ellipse rx="30" ry="30" transform="matrix(.040335 0 0 0.04181 42.22614 43.13854)" fill="#d2dbed" stroke-width="0"/><ellipse rx="30" ry="30" transform="matrix(.040335 0 0 0.04181 38.335171 43.13854)" fill="#d2dbed" stroke-width="0"/><ellipse rx="30" ry="30" transform="matrix(.040335 0 0 0.04181 34.617133 43.13854)" fill="#d2dbed" stroke-width="0"/><ellipse rx="30" ry="30" transform="matrix(.040335 0 0 0.04181 30.639698 43.13854)" fill="#d2dbed" stroke-width="0"/><ellipse rx="30" ry="30" transform="matrix(.040335 0 0 0.04181 26.575797 43.13854)" fill="#d2dbed" stroke-width="0"/></g><g transform="translate(123.159096 215.902486)"><ellipse rx="30" ry="30" transform="matrix(.040335 0 0 0.04181 22.85776 43.13854)" fill="#d2dbed" stroke-width="0"/><ellipse rx="30" ry="30" transform="matrix(.040335 0 0 0.04181 58.654677 43.13854)" fill="#d2dbed" stroke-width="0"/><ellipse rx="30" ry="30" transform="matrix(.040335 0 0 0.04181 54.331377 43.13854)" fill="#d2dbed" stroke-width="0"/><ellipse rx="30" ry="30" transform="matrix(.040335 0 0 0.04181 50.18101 43.13854)" fill="#d2dbed" stroke-width="0"/><ellipse rx="30" ry="30" transform="matrix(.040335 0 0 0.04181 46.117109 43.13854)" fill="#d2dbed" stroke-width="0"/><ellipse rx="30" ry="30" transform="matrix(.040335 0 0 0.04181 42.22614 43.13854)" fill="#d2dbed" stroke-width="0"/><ellipse rx="30" ry="30" transform="matrix(.040335 0 0 0.04181 38.335171 43.13854)" fill="#d2dbed" stroke-width="0"/><ellipse rx="30" ry="30" transform="matrix(.040335 0 0 0.04181 34.617133 43.13854)" fill="#d2dbed" stroke-width="0"/><ellipse rx="30" ry="30" transform="matrix(.040335 0 0 0.04181 30.639698 43.13854)" fill="#d2dbed" stroke-width="0"/><ellipse rx="30" ry="30" transform="matrix(.040335 0 0 0.04181 26.575797 43.13854)" fill="#d2dbed" stroke-width="0"/></g></g></g><path d="M-68.82552,373v-446h346v.25403C212.49135,-22.26507,170.56498,58.71191,170.56498,150s41.92637,172.26507,106.6095,222.74597v.25403h-346Z" transform="matrix(.45552 0 0 0.5 29.661777 75.117207)" filter="url(#el1ESZPaY37611-filter)" fill="url(#el1ESZPaY37611-fill)" stroke-width="0"/></g></svg>
